<svg width="600" height="360" viewBox="0 0 600 360" fill="none" xmlns="http://www.w3.org/2000/svg">
  <rect width="600" height="360" rx="18" fill="#EAF3FF"/>
  <rect x="18" y="18" width="564" height="324" rx="14" fill="#FFFFFF"/>
  <path d="M42 95H558" stroke="#D7E4F7" stroke-width="8"/>
  <path d="M42 160H558" stroke="#D7E4F7" stroke-width="8"/>
  <path d="M42 225H558" stroke="#D7E4F7" stroke-width="8"/>
  <path d="M42 290H558" stroke="#D7E4F7" stroke-width="8"/>
  <path d="M120 42V318" stroke="#D7E4F7" stroke-width="8"/>
  <path d="M220 42V318" stroke="#D7E4F7" stroke-width="8"/>
  <path d="M320 42V318" stroke="#D7E4F7" stroke-width="8"/>
  <path d="M420 42V318" stroke="#D7E4F7" stroke-width="8"/>
  <path d="M520 42V318" stroke="#D7E4F7" stroke-width="8"/>
  <circle cx="300" cy="168" r="58" fill="#EA4335"/>
  <circle cx="300" cy="168" r="28" fill="#FFFFFF"/>
  <path d="M300 255C300 255 358 212 358 168C358 136 332 110 300 110C268 110 242 136 242 168C242 212 300 255 300 255Z" fill="#FBBC05" fill-opacity="0.65"/>
  <rect x="152" y="272" width="296" height="42" rx="10" fill="#4285F4"/>
  <text x="300" y="299" text-anchor="middle" font-family="Arial, sans-serif" font-size="20" fill="white" font-weight="700">Abrir no Google Maps</text>
</svg>
